<?xml version="1.0" encoding="UTF-8"?>
<svg width="1000" height="1000" viewBox="0 0 1000 1000" xmlns="http://www.w3.org/2000/svg">
  <defs>
    <style>
      .bg { fill: #EDECDE; }
      .line { stroke: #8C8D68; stroke-width: 4; fill: none; }
      .text-main {
        fill: #8C8D68;
        font-family: serif;
        font-size: 90px;
        letter-spacing: 18px;
      }
      .text-sub {
        fill: #8C8D68;
        font-family: sans-serif;
        font-size: 32px;
        letter-spacing: 10px;
      }
      .mono {
        fill: #8C8D68;
        font-family: serif;
        font-size: 260px;
      }
    </style>
  </defs>

  <circle cx="500" cy="500" r="460" class="bg"/>
  <circle cx="500" cy="500" r="450" class="line"/>
  <circle cx="500" cy="500" r="430" class="line"/>

  <text x="320" y="430" class="mono">L</text>
  <text x="470" y="560" class="mono">B</text>

  <path d="M540 250 Q620 290 650 360 Q670 420 640 470" class="line"/>
  <path d="M650 360 Q700 380 700 430 Q700 470 660 500" class="line"/>

  <path d="M345 470 Q390 520 440 580" class="line"/>

  <ellipse cx="380" cy="500" rx="18" ry="8" fill="#8C8D68" transform="rotate(-35 380 500)"/>
  <ellipse cx="420" cy="545" rx="18" ry="8" fill="#8C8D68" transform="rotate(20 420 545)"/>
  <ellipse cx="455" cy="590" rx="18" ry="8" fill="#8C8D68" transform="rotate(-30 455 590)"/>

  <text x="255" y="740" class="text-main">LUMI</text>

  <line x1="280" y1="780" x2="430" y2="780" class="line"/>
  <line x1="570" y1="780" x2="720" y2="780" class="line"/>

  <text x="275" y="835" class="text-sub">BEAUTY STUDIO</text>
</svg>
